<?xml version="1.0" standalone="no"?>
<!DOCTYPE svg PUBLIC "-//W3C//DTD SVG 20010904//EN"
 "http://www.w3.org/TR/2001/REC-SVG-20010904/DTD/svg10.dtd">
<svg version="1.0" xmlns="http://www.w3.org/2000/svg"
 width="500.000000pt" height="500.000000pt" viewBox="0 0 500.000000 500.000000"
 preserveAspectRatio="xMidYMid meet">
<metadata>
Created by potrace 1.11, written by Peter Selinger 2001-2013
</metadata>
<g transform="translate(0.000000,500.000000) scale(0.100000,-0.100000)"
fill="#000000" stroke="none">
<path d="M2457 4994 c-1 -1 -54 -4 -117 -8 -63 -3 -124 -8 -135 -10 -11 -2
-41 -6 -66 -10 -63 -9 -101 -16 -119 -21 -8 -3 -33 -7 -55 -11 -53 -8 -253
-66 -339 -99 -259 -98 -546 -266 -741 -434 -76 -66 -268 -264 -327 -337 -255
-316 -429 -688 -507 -1079 -37 -191 -48 -314 -45 -524 2 -180 6 -228 30 -386
49 -312 188 -669 366 -940 171 -261 342 -443 623 -663 94 -74 314 -201 460
-265 90 -40 254 -103 295 -112 8 -2 60 -15 114 -29 90 -24 145 -34 276 -54
108 -16 696 -6 752 13 7 2 31 7 53 10 109 16 335 83 479 142 556 229 1028 669
1291 1203 124 254 213 550 242 808 10 89 10 519 0 607 -48 417 -231 866 -493
1211 -95 125 -252 291 -363 384 -29 25 -59 50 -65 56 -31 29 -212 153 -294
201 -274 161 -614 281 -907 319 -22 3 -51 7 -65 10 -36 6 -338 22 -343 18z
m43 -962 c313 -92 523 -372 520 -694 0 -89 -9 -137 -39 -226 -44 -127 -84
-185 -215 -314 l-120 -117 20 -22 c10 -12 52 -56 91 -98 87 -91 115 -143 118
-219 5 -102 -42 -186 -133 -240 -40 -23 -58 -27 -122 -27 -64 0 -82 4 -121 27
-41 24 -134 118 -199 201 -12 15 -27 27 -33 27 -13 0 -63 -44 -191 -168 -57
-55 -87 -94 -108 -138 -31 -66 -48 -149 -41 -198 14 -103 24 -136 63 -197 98
-151 283 -218 462 -165 69 20 115 52 229 157 99 92 123 114 205 188 27 25 95
87 150 138 151 139 156 144 202 165 53 24 144 26 199 3 91 -38 156 -140 157
-245 0 -107 -24 -142 -238 -335 -49 -44 -96 -87 -105 -95 -9 -9 -68 -63 -131
-120 -63 -58 -130 -120 -149 -137 -251 -238 -598 -318 -922 -214 -241 78 -440
251 -549 478 -67 138 -90 255 -86 423 5 196 59 358 172 516 37 52 277 291 316
315 13 8 -3 33 -65 98 -167 176 -234 320 -242 518 -7 195 62 377 194 512 91
92 105 103 184 146 62 33 141 61 207 71 19 3 37 7 39 9 11 11 225 -6 281 -23z"/>
<path d="M2261 3546 c-112 -39 -175 -170 -133 -278 9 -21 99 -134 149 -186 15
-16 20 -13 136 92 103 93 131 170 93 260 -16 40 -70 94 -106 108 -38 15 -101
16 -139 4z"/>
</g>
</svg>
