<svg width="41" height="41" viewBox="0 0 41 41" fill="none" xmlns="http://www.w3.org/2000/svg">
<path d="M40.7598 37.5566C40.9199 37.7168 41 37.957 41 38.1973C41 38.5176 40.9199 38.7578 40.7598 38.918L38.918 40.6797C38.6777 40.9199 38.4375 41 38.1973 41C37.877 41 37.7168 40.9199 37.5566 40.6797L27.7871 30.9902C27.627 30.8301 27.5469 30.5898 27.5469 30.3496V29.2285C26.0254 30.5098 24.3438 31.5508 22.502 32.2715C20.5801 32.9922 18.6582 33.3125 16.6562 33.3125C13.6133 33.3125 10.8105 32.5918 8.24805 31.0703C5.68555 29.6289 3.68359 27.627 2.24219 25.0645C0.720703 22.502 0 19.6992 0 16.6562C0 13.6133 0.720703 10.8906 2.24219 8.32812C3.68359 5.76562 5.68555 3.76367 8.24805 2.24219C10.8105 0.800781 13.6133 0 16.6562 0C19.6992 0 22.4219 0.800781 24.9844 2.24219C27.5469 3.76367 29.5488 5.76562 31.0703 8.32812C32.5117 10.8906 33.3125 13.6133 33.3125 16.6562C33.3125 18.7383 32.9121 20.6602 32.1914 22.502C31.4707 24.4238 30.5098 26.1055 29.2285 27.5469H30.3496C30.5898 27.5469 30.8301 27.627 30.9902 27.7871L40.7598 37.5566ZM16.6562 29.4688C18.8984 29.4688 21.0605 28.9082 23.0625 27.7871C24.9844 26.666 26.5859 25.0645 27.707 23.0625C28.8281 21.1406 29.4688 18.9785 29.4688 16.6562C29.4688 14.4141 28.8281 12.252 27.707 10.25C26.5859 8.32812 24.9844 6.72656 23.0625 5.60547C21.0605 4.48438 18.8984 3.84375 16.6562 3.84375C14.334 3.84375 12.1719 4.48438 10.25 5.60547C8.24805 6.72656 6.64648 8.32812 5.52539 10.25C4.4043 12.252 3.84375 14.4141 3.84375 16.6562C3.84375 18.9785 4.4043 21.1406 5.52539 23.0625C6.64648 25.0645 8.24805 26.666 10.25 27.7871C12.1719 28.9082 14.334 29.4688 16.6562 29.4688Z" fill="#9E9E9E"/>
</svg>
