<?xml version="1.0" standalone="no"?>
<!DOCTYPE svg PUBLIC "-//W3C//DTD SVG 20010904//EN"
 "http://www.w3.org/TR/2001/REC-SVG-20010904/DTD/svg10.dtd">
<svg version="1.0" xmlns="http://www.w3.org/2000/svg"
 width="500.000000pt" height="500.000000pt" viewBox="0 0 500.000000 500.000000"
 preserveAspectRatio="xMidYMid meet">
<metadata>
Created by potrace 1.11, written by Peter Selinger 2001-2013
</metadata>
<g transform="translate(0.000000,500.000000) scale(0.100000,-0.100000)"
fill="#000000" stroke="none">
<path d="M1025 3843 c3 -10 221 -622 483 -1360 l476 -1343 516 0 515 0 455
1283 c250 705 467 1317 482 1360 l27 77 -442 0 -442 0 -274 -887 c-151 -489
-284 -917 -296 -953 l-22 -65 -49 154 c-27 85 -161 513 -299 950 l-251 796
-443 3 c-420 2 -443 1 -436 -15z"/>
</g>
</svg>
