<svg width="41" height="41" fill="none" xmlns="http://www.w3.org/2000/svg"><path d="M40.76 37.557c.16.16.24.4.24.64 0 .32-.08.56-.24.721l-1.842 1.762c-.24.24-.48.32-.72.32-.321 0-.481-.08-.641-.32l-9.77-9.69c-.16-.16-.24-.4-.24-.64v-1.122c-1.522 1.282-3.203 2.323-5.045 3.044-1.922.72-3.844 1.04-5.846 1.04-3.043 0-5.845-.72-8.408-2.242a15.464 15.464 0 0 1-6.006-6.006C.721 22.502 0 19.7 0 16.657c0-3.043.72-5.765 2.242-8.328 1.442-2.562 3.444-4.564 6.006-6.086C10.811.801 13.613 0 16.656 0c3.043 0 5.766.8 8.328 2.242a17.048 17.048 0 0 1 6.086 6.086c1.442 2.563 2.242 5.285 2.242 8.328 0 2.082-.4 4.004-1.12 5.846-.721 1.922-1.682 3.604-2.963 5.045h1.12c.24 0 .481.08.641.24l9.77 9.77zm-24.104-8.088c2.242 0 4.405-.56 6.407-1.682a12.532 12.532 0 0 0 4.644-4.724c1.121-1.922 1.762-4.084 1.762-6.407 0-2.242-.64-4.404-1.762-6.406a12.91 12.91 0 0 0-4.645-4.645c-2.002-1.12-4.164-1.761-6.406-1.761-2.322 0-4.484.64-6.406 1.761a12.532 12.532 0 0 0-4.725 4.645 12.981 12.981 0 0 0-1.681 6.406c0 2.323.56 4.485 1.681 6.407a12.18 12.18 0 0 0 4.725 4.724c1.922 1.121 4.084 1.682 6.406 1.682z" fill="#9E9E9E"/></svg>